<svg xmlns="http://www.w3.org/2000/svg" viewBox="0 0 128 128" role="img" aria-label="Hingabe Flamme Herz Icon">
  <title>Hingabe Flamme Herz</title>
  <g fill="none" stroke="#FF4B4B" stroke-width="9" stroke-linecap="round" stroke-linejoin="round">
    <!-- outer flame -->
    <path d="M64 116C39 104 24 84 27 61c2-16 11-27 22-40-2 18 4 28 14 37 16-17 18-34 9-50 28 16 44 42 34 70-5 15-18 29-42 38z"/>

    <!-- inner flame tongues -->
    <path d="M50 70c-8-8-11-20-3-34"/>
    <path d="M78 70c9-11 11-24 4-39"/>

    <!-- heart -->
    <path d="M64 96S43 82 43 67c0-8 6-14 14-14 4 0 7 2 7 5 1-3 4-5 8-5 8 0 14 6 14 14 0 15-22 29-22 29z"/>
  </g>
</svg>
